<svg width="5" height="3" viewBox="0 0 5 3" fill="none" xmlns="http://www.w3.org/2000/svg">
<path d="M2.5 3C2.39365 2.99957 2.28875 2.9802 2.19292 2.9433C2.09708 2.90641 2.01272 2.8529 1.94594 2.78667L0.192116 1.08667C0.0896334 0.984323 0.0251425 0.861001 0.00599255 0.730756C-0.0131574 0.600511 0.0138036 0.468581 0.0838036 0.35C0.140576 0.246942 0.233222 0.159138 0.350676 0.0970742C0.468131 0.0350106 0.60543 0.00131102 0.746175 0H4.25382C4.39457 0.00131102 4.53187 0.0350106 4.64932 0.0970742C4.76678 0.159138 4.85942 0.246942 4.9162 0.35C4.9862 0.468581 5.01316 0.600511 4.99401 0.730756C4.97486 0.861001 4.91037 0.984323 4.80788 1.08667L3.05406 2.78667C2.98728 2.8529 2.90291 2.90641 2.80708 2.9433C2.71125 2.9802 2.60635 2.99957 2.5 3Z" fill="#242425"/>
</svg>
