<svg width="15" height="16" viewBox="0 0 15 16" fill="none" xmlns="http://www.w3.org/2000/svg">
<path d="M10.4437 7.3V3.8C10.4437 3.05739 10.1336 2.3452 9.58151 1.8201C9.02946 1.295 8.28072 1 7.5 1C6.71928 1 5.97054 1.295 5.41849 1.8201C4.86644 2.3452 4.5563 3.05739 4.5563 3.8V7.3M1.65012 5.844C1.66493 5.66858 1.74865 5.5049 1.88462 5.38556C2.02059 5.26621 2.19883 5.19996 2.38384 5.2H12.6162C12.8012 5.19996 12.9794 5.26621 13.1154 5.38556C13.2514 5.5049 13.3351 5.66858 13.3499 5.844L13.9953 13.488C14.0115 13.6806 13.9857 13.8744 13.9194 14.0571C13.853 14.2397 13.7477 14.4073 13.6099 14.5494C13.4721 14.6914 13.3049 14.8048 13.1188 14.8823C12.9327 14.9599 12.7318 14.9999 12.5286 15H2.47142C2.26824 14.9999 2.06728 14.9599 1.88119 14.8823C1.69509 14.8048 1.5279 14.6914 1.39012 14.5494C1.25234 14.4073 1.14697 14.2397 1.08064 14.0571C1.01432 13.8744 0.988464 13.6806 1.00472 13.488L1.65012 5.844Z" stroke="#242425" stroke-linecap="round" stroke-linejoin="round"/>
</svg>
