<svg width="17" height="20" viewBox="0 0 17 20" fill="none" xmlns="http://www.w3.org/2000/svg">
<path d="M8.33333 11.4112C10.6312 11.4112 12.5 9.70525 12.5 7.60748C12.5 5.50972 10.6312 3.80374 8.33333 3.80374C6.03544 3.80374 4.16671 5.50972 4.16671 7.60748C4.16671 9.70525 6.03544 11.4112 8.33333 11.4112ZM8.33333 5.70561C9.48228 5.70561 10.4166 6.5586 10.4166 7.60748C10.4166 8.65636 9.48228 9.50935 8.33333 9.50935C7.18439 9.50935 6.25002 8.65636 6.25002 7.60748C6.25002 6.5586 7.18439 5.70561 8.33333 5.70561Z" fill="#242425"/>
<path d="M7.72917 18.8418C7.90547 18.9568 8.11669 19.0186 8.33333 19.0186C8.54997 19.0186 8.7612 18.9568 8.93749 18.8418C9.25416 18.6374 16.6968 13.7315 16.6666 7.60748C16.6666 3.41291 12.9281 0 8.33333 0C3.73859 0 9.17049e-05 3.41291 9.17049e-05 7.60273C-0.0301163 13.7315 7.41251 18.6374 7.72917 18.8418ZM8.33333 1.90187C11.7802 1.90187 14.5833 4.46084 14.5833 7.61224C14.6051 11.8325 10.0125 15.622 8.33333 16.8648C6.65523 15.621 2.06153 11.8306 2.0834 7.60748C2.0834 4.46084 4.8865 1.90187 8.33333 1.90187Z" fill="#242425"/>
</svg>
