<svg width="31" height="32" viewBox="0 0 31 32" fill="none" xmlns="http://www.w3.org/2000/svg">
<path d="M27.3245 22.2005C25.3603 19.5315 22.6071 17.6323 19.4255 16.7125C22.3388 14.1531 21.6496 11.3134 21.727 7.84472L21.7271 6.90448C21.8173 3.84804 20.9044 2.09603 17.7703 1.95853C16.3764 -0.629625 11.874 -0.523717 10.1062 1.5195C8.55344 3.183 8.53082 6.46929 8.53559 6.93225V11.7104C8.53559 13.7087 9.42897 15.5019 10.8371 16.7125C4.11604 18.5929 -0.369727 25.0633 0.0240045 32H30.2386C30.3824 28.4843 29.4433 25.031 27.3245 22.2005ZM7.7634 27.6028H22.4992V30.1155H7.7634V27.6028ZM16.7612 18.3689L15.1283 20.4358L13.4728 18.3689H16.7612ZM10.5602 5.21642C10.7369 4.11029 11.065 3.25392 11.4837 2.80516C12.0333 2.21645 12.9688 1.87467 13.9104 1.87467C15.0552 1.86078 16.0595 2.40534 16.2234 3.13187L16.412 3.82762C18.0889 3.78729 19.1185 3.95288 19.451 4.4539C19.6794 4.76308 19.7799 5.28163 19.8197 5.96582L10.4646 5.99346C10.4854 5.75909 10.5157 5.49439 10.5602 5.21642ZM10.4201 11.7104V7.87813L19.8425 7.85031V11.7104C19.5836 17.9608 10.6776 17.9582 10.4201 11.7104ZM11.0976 18.6042L11.2172 18.5673L15.1385 23.4629L19.0137 18.5576C20.2596 18.9284 21.437 19.4732 22.4991 20.1745V25.7184H7.7634V20.1745C8.78403 19.5021 9.9026 18.9732 11.0976 18.6042ZM4.45443 23.3194C4.8878 22.732 5.36432 22.1875 5.87891 21.6882V30.1156H1.94184C2.11666 27.6552 2.97643 25.3224 4.45443 23.3194ZM24.3837 30.1155V21.6881C26.6741 23.9005 28.1099 26.9513 28.3207 30.1155H24.3837Z" fill="#FF5F23"/>
</svg>
