<svg width="32" height="30" viewBox="0 0 32 30" fill="none" xmlns="http://www.w3.org/2000/svg">
<path d="M29.5189 15.5132V0.941328C29.5189 0.421464 29.0974 0 28.5776 0H3.35739C2.83753 0 2.41606 0.421464 2.41606 0.941328V16.6749C1.96197 16.741 1.51804 16.9173 1.12532 17.2089C-0.112719 18.0867 -0.405535 20.0514 0.631495 21.263L4.87143 26.4031C7.49597 29.4747 10.284 29.8511 14.4287 29.8511C17.9855 29.8511 19.5757 29.8668 22.6755 29.1605L25.6939 28.4385C26.1833 29.122 26.9603 29.5647 27.8337 29.5647H29.3207C30.798 29.5647 32 28.2985 32 26.7421V18.3273C32.0001 16.8412 30.904 15.6205 29.5189 15.5132ZM25.2878 17.4496L24.0336 16.8126C21.9714 15.7716 19.5871 15.7331 17.4924 16.707C16.9209 16.9318 15.6744 17.686 15.0278 17.6608H10.6756C9.23197 17.6608 8.05744 18.8352 8.05744 20.2789V20.9654C8.04935 20.9569 8.04088 20.9488 8.03291 20.9401L4.92496 17.5666C4.73688 17.3624 4.52558 17.1916 4.29878 17.0545V7.71538H12.0022V11.166C12.0022 11.6859 12.4236 12.1074 12.9435 12.1074H18.8833C19.4032 12.1074 19.8247 11.6859 19.8247 11.166V7.71538H27.6363V15.5132C26.5365 15.5981 25.6194 16.3849 25.2878 17.4496ZM13.8848 7.71538H17.942V10.2247H13.8848V7.71538ZM27.6363 5.83272H19.8247V1.88266H27.6363V5.83272H27.6363ZM17.942 1.88266V5.83278H13.8848V1.88266H17.942ZM12.0021 1.88266V5.83278H4.29872V1.88266H12.0021ZM22.2386 27.3291C19.375 27.985 17.6505 27.9585 14.4625 27.9585C10.5717 27.9585 8.69171 27.8956 6.32383 25.205L2.0839 20.0649C1.3464 19.1046 2.68221 17.9709 3.54032 18.8421L6.64828 22.2157C7.46968 23.0824 8.50332 23.5594 9.77731 23.5874H18.3941C18.914 23.5874 19.3354 23.166 19.3354 22.6461C19.3354 22.1262 18.914 21.7048 18.3941 21.7048H9.94004V20.2788C9.94004 19.8733 10.2699 19.5433 10.6755 19.5433H15.0277C16.0082 19.6135 17.4234 18.7948 18.286 18.4141C19.8549 17.6846 21.6407 17.7135 23.1831 18.492L25.1545 19.4933V26.6316L22.2386 27.3291ZM30.1174 26.7421C30.1174 27.2604 29.76 27.682 29.3207 27.682H27.8338C27.3945 27.682 27.0372 27.2604 27.0372 26.7421V18.3273C27.0372 17.809 27.3946 17.3873 27.8338 17.3873H29.3207C29.76 17.3873 30.1174 17.809 30.1174 18.3273V26.7421Z" fill="#FF5F23"/>
</svg>
