<svg width="26" height="34" viewBox="0 0 26 34" fill="none" xmlns="http://www.w3.org/2000/svg">
<path d="M24.2131 10.0731C23.7683 9.64637 23.3084 9.20516 23.1628 8.85109C23.0029 8.46214 23.0161 7.79822 23.0289 7.1562C23.0515 6.01607 23.0771 4.72394 22.2021 3.84153C21.3255 2.95753 20.036 2.97759 18.8993 2.99592C18.2608 3.00594 17.6002 3.0165 17.2143 2.85507C16.8615 2.70751 16.4231 2.24546 15.9991 1.79868C15.1988 0.955586 14.292 0 13 0C11.708 0 10.8012 0.955585 10.001 1.79861C9.57701 2.24546 9.13852 2.70751 8.78579 2.855C8.39991 3.01644 7.7393 3.00594 7.10086 2.99578C5.96312 2.97832 4.67453 2.95747 3.79802 3.8414C2.92291 4.72381 2.94858 6.01601 2.97121 7.15613C2.98391 7.79822 2.99714 8.46214 2.83729 8.85095C2.69165 9.2051 2.23173 9.64637 1.78696 10.073C0.949357 10.8767 0 11.7874 0 13.0825C0 14.3775 0.949357 15.2884 1.78696 16.0919C2.23173 16.5186 2.69165 16.9598 2.83722 17.3139C2.99714 17.7028 2.98398 18.3668 2.97121 19.0088C2.94858 20.1489 2.92297 21.441 3.79796 22.3235C4.34959 22.8798 5.06465 23.078 5.80234 23.144V33.0039C5.80234 33.3382 5.96948 33.6502 6.24738 33.8347C6.52514 34.0192 6.87682 34.0514 7.1833 33.9206L13 31.4377L18.8168 33.9206C18.9414 33.9738 19.0735 34 19.2051 34C19.397 34 19.5878 33.9441 19.7526 33.8347C20.0305 33.6503 20.1977 33.3382 20.1977 33.0039V23.1442C20.9354 23.0782 21.6503 22.88 22.202 22.3238C23.0771 21.4414 23.0514 20.1491 23.0288 19.009C23.0161 18.367 23.0029 17.703 23.1627 17.3142C23.3083 16.9601 23.7683 16.5188 24.213 16.0922C25.0506 15.2885 26 14.3777 26 13.0827C26 11.7876 25.0507 10.8767 24.2131 10.0731ZM13.3884 29.4387C13.1403 29.3327 12.8597 29.3327 12.6116 29.4387L7.78733 31.4979V23.1665C8.18063 23.1743 8.53932 23.2071 8.78579 23.3101C9.13852 23.4577 9.57701 23.9197 10.001 24.3665C10.8012 25.2096 11.708 26.1652 13 26.1652C14.292 26.1652 15.1988 25.2096 15.9989 24.3666C16.423 23.9197 16.8615 23.4577 17.2142 23.3102C17.4607 23.207 17.8194 23.1742 18.2127 23.1664V31.4978L13.3884 29.4387ZM22.8414 14.6521C22.2476 15.2218 21.6335 15.8109 21.3278 16.5543C21.01 17.3273 21.0274 18.2024 21.0442 19.0488C21.0589 19.7924 21.0757 20.6355 20.795 20.9184C20.5133 21.2024 19.6724 21.1893 18.9304 21.1774C18.0886 21.1643 17.2181 21.1504 16.4507 21.4713C15.7122 21.78 15.1273 22.3965 14.5615 22.9926C14.0364 23.5459 13.4413 24.173 12.9999 24.173C12.5585 24.173 11.9634 23.5459 11.4382 22.9926C10.8725 22.3964 10.2875 21.78 9.54902 21.4712C8.93559 21.2147 8.25639 21.172 7.57858 21.172C7.40847 21.172 7.23829 21.1748 7.06943 21.1774C6.32731 21.189 5.48639 21.2024 5.20472 20.9184C4.92418 20.6354 4.94092 19.7925 4.95561 19.0488C4.97241 18.2024 4.98982 17.3272 4.67189 16.5541C4.36626 15.8109 3.75224 15.2218 3.15839 14.652C2.60828 14.1243 1.9848 13.5261 1.9848 13.0826C1.9848 12.6392 2.60828 12.0409 3.15839 11.5132C3.75224 10.9435 4.36626 10.3544 4.67195 9.61097C4.98981 8.83794 4.97241 7.96284 4.95561 7.11649C4.94085 6.37274 4.92411 5.52971 5.20479 5.24676C5.48646 4.9628 6.32777 4.97595 7.06936 4.98784C7.9116 5.00099 8.78175 5.01486 9.54915 4.69392C10.2876 4.3852 10.8725 3.76875 11.4383 3.17262C11.9634 2.61926 12.5586 1.99219 13 1.99219C13.4414 1.99219 14.0366 2.61926 14.5617 3.17256C15.1274 3.76875 15.7124 4.38513 16.4508 4.69386C17.2182 5.0148 18.0885 5.00079 18.9306 4.98777C19.6726 4.97615 20.5135 4.96287 20.7952 5.24676C21.0758 5.52971 21.059 6.37267 21.0443 7.11642C21.0275 7.9627 21.0101 8.83787 21.328 9.61097C21.6337 10.3543 22.2477 10.9433 22.8415 11.5131C23.3916 12.0408 24.0151 12.6391 24.0151 13.0826C24.0151 13.526 23.3916 14.1243 22.8414 14.6521Z" fill="#FF5F23"/>
<path d="M13 5.83133C9.07057 5.83133 5.8738 9.04858 5.8738 13.0031C5.8738 16.9577 9.07057 20.175 13 20.175C16.9294 20.175 20.1262 16.9578 20.1262 13.0032C20.1262 9.04865 16.9294 5.83133 13 5.83133ZM13 18.1828C10.1651 18.1828 7.85879 15.8593 7.85879 13.0032C7.85879 10.1471 10.1651 7.82358 13 7.82358C15.8349 7.82358 18.1412 10.1471 18.1412 13.0032C18.1412 15.8593 15.8349 18.1828 13 18.1828Z" fill="#FF5F23"/>
<path d="M14.1639 11.1234L12.365 12.9288L11.8361 12.398C11.4485 12.009 10.8201 12.009 10.4325 12.398C10.0449 12.7869 10.0449 13.4176 10.4325 13.8067L11.6632 15.0419C11.8494 15.2287 12.1018 15.3337 12.365 15.3337C12.6282 15.3337 12.8807 15.2287 13.0668 15.0419L15.5675 12.532C15.9551 12.143 15.9551 11.5124 15.5675 11.1234C15.1799 10.7344 14.5515 10.7344 14.1639 11.1234Z" fill="#FF5F23"/>
</svg>
