<svg width="32" height="32" viewBox="0 0 32 32" fill="none" xmlns="http://www.w3.org/2000/svg">
<path d="M29.5 20.75V7.5C29.5 6.12158 28.3784 5 27 5H25.375V6.25C25.375 6.94043 24.8154 7.5 24.125 7.5C23.4346 7.5 22.875 6.94043 22.875 6.25V5H17.1875V6.25C17.1875 6.94043 16.6279 7.5 15.9375 7.5C15.2471 7.5 14.6875 6.94043 14.6875 6.25V5H9.0625V6.25C9.0625 6.94043 8.50293 7.5 7.8125 7.5C7.12207 7.5 6.5625 6.94043 6.5625 6.25V5H5C3.62158 5 2.5 6.12158 2.5 7.5V9.375H25.75C26.4404 9.375 27 9.93457 27 10.625C27 11.3154 26.4404 11.875 25.75 11.875H2.5V27C2.5 28.3784 3.62158 29.5 5 29.5H27C28.3784 29.5 29.5 28.3784 29.5 27C29.5 26.3096 30.0596 25.75 30.75 25.75C31.4404 25.75 32 26.3096 32 27C32 29.7571 29.7571 32 27 32H5C2.24292 32 0 29.7571 0 27V7.5C0 4.74292 2.24292 2.5 5 2.5H6.5625V1.25C6.5625 0.55957 7.12207 0 7.8125 0C8.50293 0 9.0625 0.55957 9.0625 1.25V2.5H14.6875V1.25C14.6875 0.55957 15.2471 0 15.9375 0C16.6279 0 17.1875 0.55957 17.1875 1.25V2.5H22.875V1.25C22.875 0.55957 23.4346 0 24.125 0C24.8154 0 25.375 0.55957 25.375 1.25V2.5H27C29.7571 2.5 32 4.74292 32 7.5V20.75C32 21.4404 31.4404 22 30.75 22C30.0596 22 29.5 21.4404 29.5 20.75Z" fill="#FF5F23"/>
<path d="M14.168 22.956C14.588 22.956 14.896 23.04 15.092 23.208C15.288 23.376 15.386 23.628 15.386 23.964C15.386 24.6547 14.98 25 14.168 25H9.31C8.498 25 8.092 24.6547 8.092 23.964C8.092 23.628 8.19 23.376 8.386 23.208C8.582 23.04 8.89 22.956 9.31 22.956H10.444V17.902L9.324 18.56C9.16533 18.6533 9.002 18.7 8.834 18.7C8.57267 18.7 8.34867 18.588 8.162 18.364C7.97533 18.1307 7.882 17.874 7.882 17.594C7.882 17.2113 8.04533 16.922 8.372 16.726L10.612 15.424C11.0227 15.1907 11.41 15.074 11.774 15.074C12.1473 15.074 12.446 15.186 12.67 15.41C12.9033 15.634 13.02 15.9373 13.02 16.32V22.956H14.168Z" fill="#FF5F23"/>
<path d="M22.1985 22.956C22.6092 22.956 22.9125 23.04 23.1085 23.208C23.3139 23.3667 23.4165 23.6187 23.4165 23.964C23.4165 24.3187 23.3139 24.58 23.1085 24.748C22.9125 24.916 22.6092 25 22.1985 25H17.0885C16.7525 25 16.4865 24.902 16.2905 24.706C16.0945 24.5007 15.9965 24.244 15.9965 23.936C15.9965 23.5347 16.1552 23.1707 16.4725 22.844L19.4405 19.75C20.0565 19.106 20.3645 18.5133 20.3645 17.972C20.3645 17.6547 20.2712 17.412 20.0845 17.244C19.9072 17.076 19.6505 16.992 19.3145 16.992C19.0439 16.992 18.7919 17.034 18.5585 17.118C18.3345 17.1927 18.0732 17.3047 17.7745 17.454L17.4945 17.594C17.4572 17.6127 17.3825 17.6547 17.2705 17.72C17.1679 17.776 17.0745 17.818 16.9905 17.846C16.9065 17.874 16.8179 17.888 16.7245 17.888C16.4912 17.888 16.2952 17.7853 16.1365 17.58C15.9779 17.3653 15.8985 17.1133 15.8985 16.824C15.8985 16.6187 15.9265 16.4507 15.9825 16.32C16.0479 16.1893 16.1645 16.068 16.3325 15.956C16.7712 15.6573 17.2612 15.424 17.8025 15.256C18.3532 15.088 18.8945 15.004 19.4265 15.004C20.1172 15.004 20.7239 15.1207 21.2465 15.354C21.7692 15.578 22.1705 15.9047 22.4505 16.334C22.7399 16.754 22.8845 17.2393 22.8845 17.79C22.8845 18.3593 22.7679 18.882 22.5345 19.358C22.3105 19.8247 21.9232 20.3473 21.3725 20.926L19.3845 22.956H22.1985Z" fill="#FF5F23"/>
</svg>
