<svg width="32" height="33" viewBox="0 0 32 33" fill="none" xmlns="http://www.w3.org/2000/svg">
<path d="M29.0076 0C28.9729 0 28.9385 0.00146567 28.9038 0.00439702C28.6993 0.0212523 24.1274 0.440923 22.4094 3.77484L16.2052 3.14436C14.7016 2.99168 13.2282 3.51713 12.1629 4.58414L1.4588 15.2528C-0.486878 17.2019 -0.486145 20.3721 1.46027 22.3202L9.67023 30.537C10.6564 31.5239 11.9501 32.0181 13.2394 32.0181C14.5109 32.0179 15.7782 31.5374 16.7419 30.5747C17.2302 30.0866 17.2307 29.2951 16.7426 28.8068C16.2548 28.3183 15.4631 28.318 14.9747 28.8058C14.0091 29.7707 12.4228 29.7544 11.4391 28.7697L3.22885 20.5529C2.25564 19.5789 2.2554 17.9938 3.22591 17.0216L13.9302 6.35271C14.464 5.81823 15.2009 5.55539 15.9523 5.6316L25.4646 6.59846L25.5884 7.81399C23.8557 8.45986 22.2069 8.56295 22.1692 8.56515C21.4806 8.60228 20.952 9.19026 20.9882 9.87912C21.0233 10.5462 21.5752 11.0636 22.2354 11.0636C22.2577 11.0636 22.2799 11.0631 22.3021 11.0619C22.3823 11.0578 23.982 10.9662 25.8486 10.3689L26.4304 16.0833C26.5069 16.8332 26.2455 17.569 25.713 18.1028L19.6143 24.112C19.1226 24.5964 19.1167 25.3881 19.6011 25.8799C20.0858 26.3716 20.8773 26.3775 21.369 25.8928L27.4713 19.8801C27.4733 19.8782 27.4752 19.8762 27.4774 19.874C28.5459 18.8065 29.0711 17.3326 28.9179 15.83L28.2542 9.31459C29.095 8.82237 29.8039 8.24245 30.3707 7.58144C31.4528 6.31827 32.0012 4.79104 32 3.04249V2.99266C32 1.34256 30.6577 0 29.0076 0V0ZM29.4998 3.04322C29.5008 4.4405 28.9949 5.5742 27.9645 6.4707L27.8485 5.33114C27.7884 4.74096 27.3216 4.27415 26.7311 4.21405L25.2811 4.06675C26.5606 2.84536 28.6749 2.54661 29.0525 2.50215C29.3029 2.52511 29.4998 2.73641 29.4998 2.99266V3.04322ZM19.3683 18.3155C18.8803 18.8038 18.0888 18.8038 17.6005 18.3155C17.1122 17.8272 17.1122 17.0358 17.6005 16.5477C17.7339 16.4143 17.7581 16.2597 17.7549 16.1534C17.75 15.9827 17.6755 15.8168 17.5453 15.6868L16.7795 14.9208C16.5809 14.7222 16.3254 14.6113 16.0601 14.6084C15.8739 14.6066 15.6084 14.6548 15.3668 14.8966L15.1694 15.094C14.762 15.5012 14.7471 16.1742 15.1365 16.5638L15.9465 17.3736C16.6102 18.0373 16.9808 18.913 16.9905 19.8398C17.0001 20.7796 16.6378 21.6651 15.9697 22.3329L15.8776 22.425C15.2019 23.101 14.3316 23.4378 13.4556 23.4378C12.7115 23.4381 11.9638 23.194 11.3269 22.7091L10.8034 23.2143C10.5609 23.4483 10.248 23.5646 9.93552 23.5646C9.60819 23.5646 9.2811 23.4368 9.03584 23.1825C8.55632 22.6857 8.57073 21.8942 9.0676 21.4149L9.53612 20.9628C9.00897 20.3917 8.71119 19.6647 8.69483 18.9008C8.67724 18.0683 8.99456 17.2825 9.58864 16.6884C10.077 16.2003 10.8684 16.2003 11.3567 16.6884C11.8448 17.1767 11.8448 17.9682 11.3567 18.4565C11.2458 18.5671 11.1914 18.6988 11.1945 18.8476C11.198 19.0073 11.2693 19.1649 11.3958 19.2912L12.7125 20.6078C13.1248 21.0202 13.7255 21.0412 14.1098 20.6572L14.2018 20.5649C14.3907 20.3763 14.493 20.1281 14.4903 19.8657C14.4874 19.597 14.3768 19.3398 14.1786 19.1417L13.3684 18.3317C11.9975 16.9605 12.0124 14.7151 13.4013 13.3259L13.599 13.1285C14.2578 12.4697 15.1264 12.1082 16.0486 12.1082H16.0872C16.7248 12.1152 17.3386 12.2945 17.8763 12.6236L18.4132 12.0691C18.8937 11.573 19.6849 11.5602 20.1811 12.0405C20.6769 12.5208 20.6896 13.3122 20.2094 13.8083L19.6793 14.3558C20.0347 14.8627 20.2358 15.4584 20.2541 16.0801C20.2788 16.9258 19.9644 17.7197 19.3683 18.3155Z" fill="#FF5F23"/>
</svg>
