<svg width="32" height="32" viewBox="0 0 32 32" fill="none" xmlns="http://www.w3.org/2000/svg">
<path d="M24.4706 15.0588V0C24.2397 0 8.62356 0 7.52941 0V15.0588C6.85635 15.0588 1.01653 15.0588 0 15.0588V32H32V15.0588C31.3608 15.0588 25.4841 15.0588 24.4706 15.0588ZM22.5882 16.9412H24.4706V19.183L23.5294 18.7124L22.5882 19.183V16.9412ZM16.9412 1.88235V4.12417L16 3.65358L15.0588 4.12417V1.88235H16.9412ZM9.41177 1.88235H13.1765V7.16995L16 5.75818L18.8235 7.16995V1.88235H22.5882V11.2941H16V13.1765H22.5882V15.0588C22.0351 15.0588 10.2609 15.0588 9.41177 15.0588V1.88235ZM9.41177 16.9412V19.183L8.47059 18.7124L7.52941 19.183V16.9412H9.41177ZM1.88235 30.1176V16.9412H5.64706V22.2288L8.47059 20.817L11.2941 22.2288V16.9412H15.0588V26.3529H8.47059V28.2353H15.0588V30.1176H1.88235ZM16.9412 30.1176V16.9412H20.7059V22.2288L23.5294 20.817L26.3529 22.2288V16.9412H30.1176V26.3529H23.5294V28.2353H30.1176V30.1176H16.9412Z" fill="#FF5F23"/>
<path d="M18.8235 26.3529H21.647V28.2353H18.8235V26.3529Z" fill="#FF5F23"/>
<path d="M11.2942 11.2942H14.1177V13.1765H11.2942V11.2942Z" fill="#FF5F23"/>
<path d="M3.76476 26.3529H6.58829V28.2353H3.76476V26.3529Z" fill="#FF5F23"/>
</svg>
