<svg width="24" height="24" viewBox="0 0 24 24" fill="none" xmlns="http://www.w3.org/2000/svg">
<rect width="24" height="24" rx="12" fill="#242425"/>
<path d="M17.8333 15.9784L16.1414 17.6567C15.8917 17.9128 15.5606 17.9996 15.2382 18C13.8125 17.9573 12.4649 17.257 11.3584 16.5378C9.5422 15.2165 7.87574 13.5782 6.82984 11.5983C6.4287 10.7681 5.95802 9.70878 6.00299 8.78209C6.007 8.43349 6.10094 8.09136 6.34645 7.86666L8.03831 6.17565C8.38963 5.87682 8.72938 5.98014 8.9542 6.32822L10.3153 8.90924C10.4586 9.21501 10.3764 9.54263 10.1627 9.76112L9.53933 10.3841C9.50085 10.4368 9.47635 10.4968 9.47573 10.5621C9.71475 11.4873 10.4389 12.3401 11.0785 12.927C11.7182 13.5139 12.4058 14.309 13.2983 14.4972C13.4086 14.528 13.5438 14.5388 13.6227 14.4654L14.3478 13.728C14.5978 13.5385 14.9587 13.4459 15.2255 13.6008H15.2382L17.6933 15.0503C18.0537 15.2762 18.0913 15.7128 17.8333 15.9784Z" fill="white"/>
</svg>
